<svg xmlns="http://www.w3.org/2000/svg" viewBox="0 0 319.71 141.61"><defs><style>.cls-1{fill:none;}.cls-2{fill:#65b32e;}.cls-3{fill:#008dd1;}.cls-4{fill:#c9368c;}</style></defs><title>Logo_ALYF_color_neu3</title><g id="Hauptlogo"><polygon class="cls-1" points="57.01 30.32 38.11 78.18 75.91 78.18 57.01 30.32"/><path class="cls-2" d="M123.77,296.61h-9.45a6.5,6.5,0,0,0,0,13h4.32Z" transform="translate(-104.72 -216.43)"/><path class="cls-3" d="M153.83,226.73c-.06-.14-.1-.29-.15-.44l-48.5,122.86a6.5,6.5,0,1,0,12.09,4.78L134,311.61h0l6.74-17h0l20-50.59Z" transform="translate(-104.72 -216.43)"/><path class="cls-4" d="M155.69,226l27.09,68.61h10.59a8.49,8.49,0,0,1,3.73.87l-29.32-74.25a6.5,6.5,0,0,0-8.43-3.66h0A6.51,6.51,0,0,0,155.69,226Z" transform="translate(-104.72 -216.43)"/><path class="cls-2" d="M193.37,309.61a6.5,6.5,0,1,0,0-13H142l-5.15,13Z" transform="translate(-104.72 -216.43)"/></g><g id="Schriftzug"><path class="cls-3" d="M232,310.6a7.5,7.5,0,0,1-7.36-7.35v-81.4a5.42,5.42,0,0,1,10.84,0v78.82c0,.77.34,1.16,1,1.16H276.6a4.39,4.39,0,0,1,0,8.77Z" transform="translate(-104.72 -216.43)"/><path class="cls-3" d="M308.85,269.84l-29-48.25a3.36,3.36,0,0,1,3-5.16,9.7,9.7,0,0,1,9,5.29l23,40.25a.12.12,0,0,0,.13.13c.17,0,.26-.05.26-.13l23-40.38a9.36,9.36,0,0,1,8.78-5.16,3.14,3.14,0,0,1,2.9,1.68,3.06,3.06,0,0,1-.07,3.35l-29,48.38a4,4,0,0,0-.52,2.06v33.28a5.42,5.42,0,0,1-10.83,0V271.9A4.12,4.12,0,0,0,308.85,269.84Z" transform="translate(-104.72 -216.43)"/><path class="cls-3" d="M379.48,309.05a5.14,5.14,0,0,1-7.36,0,5,5,0,0,1-1.48-3.61V223.78a7.48,7.48,0,0,1,7.35-7.35h42.06a4.22,4.22,0,0,1,3.09,1.29,4.08,4.08,0,0,1,1.29,3,4.3,4.3,0,0,1-1.29,3,4.12,4.12,0,0,1-3.09,1.35H382.12c-.77,0-1.16.35-1.16,1V256c0,.69.39,1,1.16,1h35.6a3.89,3.89,0,0,1,3,1.23,4.22,4.22,0,0,1,0,5.81,3.92,3.92,0,0,1-3,1.22h-35.6a1,1,0,0,0-1.16,1.16v39A5.08,5.08,0,0,1,379.48,309.05Z" transform="translate(-104.72 -216.43)"/></g></svg>