<svg xmlns="http://www.w3.org/2000/svg" xmlns:xlink="http://www.w3.org/1999/xlink" viewBox="0 0 1920.5 1080"><defs><style>.cls-1{fill:url(#Unbenannter_Verlauf_243);}.cls-2{fill:url(#Unbenannter_Verlauf_23);}.cls-3{fill:url(#Neues_Verlaufsfeld_1);}</style><linearGradient id="Unbenannter_Verlauf_243" x1="271.43" y1="142.17" x2="2127.06" y2="1213.51" gradientUnits="userSpaceOnUse"><stop offset="0" stop-color="#008dd1"/><stop offset="0.54" stop-color="#1eb2d6"/><stop offset="0.73" stop-color="#29c0d8"/><stop offset="0.88" stop-color="#29c1d6"/><stop offset="0.94" stop-color="#28c4cf"/><stop offset="0.98" stop-color="#28c9c4"/><stop offset="1" stop-color="#27ceb7"/></linearGradient><linearGradient id="Unbenannter_Verlauf_23" x1="23.52" y1="599.66" x2="1807.89" y2="1170.91" gradientUnits="userSpaceOnUse"><stop offset="0" stop-color="#008dd1"/><stop offset="0.5" stop-color="#1eb2d6"/><stop offset="0.67" stop-color="#29c0d8"/><stop offset="0.79" stop-color="#29c2d4"/><stop offset="0.9" stop-color="#28c7c8"/><stop offset="1" stop-color="#27ceb7"/></linearGradient><linearGradient id="Neues_Verlaufsfeld_1" x1="-62.69" y1="409.9" x2="1488.44" y2="1305.44" gradientUnits="userSpaceOnUse"><stop offset="0" stop-color="#008dd1"/><stop offset="0.5" stop-color="#1eb2d6"/><stop offset="0.67" stop-color="#29c0d8"/><stop offset="1" stop-color="#27ceb7"/></linearGradient></defs><title>background4</title><g id="Ebene_1" data-name="Ebene 1"><rect class="cls-1" x="0.5" width="1920" height="1080"/></g><g id="Ebene_2" data-name="Ebene 2"><path class="cls-2" d="M1920,797c-41.25-54.57-108.66-124.6-203-140-181.61-29.65-257,176.74-468,184-209.62,7.21-265.49-191.92-460-164C633,699.39,612.18,835.63,461,867c-96.63,20-244.4-3.18-461-210l-.5,422.5h1920Z" transform="translate(0.5 0)"/><path class="cls-3" d="M1920,962c-41.25-54.57-108.66-124.6-203-140-181.61-29.65-257,176.74-468,184-209.62,7.21-265.49-191.92-460-164-156,22.39-176.82,158.63-328,190-96.63,20-244.4-3.18-461-210l-.5,257.5h1920Z" transform="translate(0.5 0)"/></g></svg>