<svg id="DSGVO" xmlns="http://www.w3.org/2000/svg" viewBox="0 0 365.67 365.67"><defs><style>.cls-1{fill:#243746;}.cls-2{fill:#fff;}</style></defs><title>Icon-DSGVO</title><circle class="cls-1" cx="182.83" cy="182.83" r="182.83"/><circle class="cls-2" cx="182.83" cy="181.78" r="159.62"/><polygon class="cls-1" points="72.57 116.61 77.32 102.69 82.82 116.61 97.74 116.61 86.91 126.19 90.66 140.53 77.91 132.94 66.41 140.53 69.16 126.53 57.32 117.03 72.57 116.61"/><polygon class="cls-1" points="56.36 177.83 61.11 163.92 66.61 177.83 81.53 177.83 70.7 187.42 74.45 201.75 61.7 194.17 50.2 201.75 52.95 187.75 41.11 178.25 56.36 177.83"/><polygon class="cls-1" points="72.24 237.94 76.99 224.03 82.49 237.94 97.41 237.94 86.57 247.53 90.32 261.86 77.57 254.28 66.07 261.86 68.82 247.86 56.99 238.36 72.24 237.94"/><polygon class="cls-1" points="116.95 282.36 121.7 268.45 127.2 282.36 142.11 282.36 131.28 291.95 135.03 306.28 122.28 298.7 110.78 306.28 113.53 292.28 101.7 282.78 116.95 282.36"/><polygon class="cls-1" points="177.88 298.44 182.63 284.53 188.13 298.44 203.04 298.44 192.21 308.03 195.96 322.36 183.21 314.78 171.71 322.36 174.46 308.36 162.63 298.86 177.88 298.44"/><polygon class="cls-1" points="238.39 282.36 243.14 268.45 248.64 282.36 263.56 282.36 252.72 291.95 256.47 306.28 243.72 298.7 232.22 306.28 234.97 292.28 223.14 282.78 238.39 282.36"/><polygon class="cls-1" points="283.07 238.61 287.82 224.69 293.32 238.61 308.24 238.61 297.41 248.19 301.16 262.53 288.41 254.94 276.91 262.53 279.66 248.53 267.82 239.03 283.07 238.61"/><polygon class="cls-1" points="299.07 177.83 303.82 163.92 309.32 177.83 324.24 177.83 313.41 187.42 317.16 201.75 304.41 194.17 292.91 201.75 295.66 187.75 283.82 178.25 299.07 177.83"/><polygon class="cls-1" points="283.07 116.61 287.82 102.69 293.32 116.61 308.24 116.61 297.41 126.19 301.16 140.53 288.41 132.94 276.91 140.53 279.66 126.53 267.82 117.03 283.07 116.61"/><polygon class="cls-1" points="238.66 72.38 243.41 58.47 248.91 72.38 263.82 72.38 252.99 81.97 256.74 96.3 243.99 88.72 232.49 96.3 235.24 82.3 223.41 72.8 238.66 72.38"/><polygon class="cls-1" points="117.57 72.38 122.32 58.47 127.82 72.38 142.74 72.38 131.91 81.97 135.66 96.3 122.91 88.72 111.41 96.3 114.16 82.3 102.32 72.8 117.57 72.38"/><polygon class="cls-1" points="177.88 56.39 182.63 42.48 188.13 56.39 203.04 56.39 192.21 65.97 195.96 80.31 183.21 72.72 171.71 80.31 174.46 66.31 162.63 56.81 177.88 56.39"/><path class="cls-1" d="M324.72,257.13H251.47a5.77,5.77,0,0,0-5.77,5.77v56.46a5.77,5.77,0,0,0,5.77,5.77h73.25a5.77,5.77,0,0,0,5.77-5.77V262.9A5.77,5.77,0,0,0,324.72,257.13Zm-32.27,35.54V311h-9.09V293a10.8,10.8,0,1,1,9.09-.32Z" transform="translate(-102.35 -88.22)"/><path class="cls-1" d="M288.09,215.94c-19.73,0-35.82,17.37-36.63,39.12h13.45c.52-14.45,10.83-26,23.47-26s22.95,11.53,23.47,26h12.87C323.91,233.31,307.83,215.94,288.09,215.94Z" transform="translate(-102.35 -88.22)"/></svg>