<svg id="ISO27001" xmlns="http://www.w3.org/2000/svg" viewBox="0 0 365.67 365.67"><defs><style>.cls-1{fill:#243746;}.cls-2{fill:#fff;}.cls-3,.cls-4{fill:none;stroke-miterlimit:10;}.cls-3{stroke:#243746;stroke-width:3px;}.cls-4{stroke:#fff;stroke-width:4px;}</style></defs><title>Icon-ISO</title><circle class="cls-1" cx="182.83" cy="182.83" r="182.83"/><circle class="cls-2" cx="181.83" cy="180.95" r="159.62"/><g id="Symbol"><path class="cls-1" d="M219.36,203.28l40-39.5h85s20-1.37,20.37,18.13V346.28H238.27s-19,1.17-18.91-20.33Z" transform="translate(-107.97 -90.58)"/><path class="cls-2" d="M222.77,205.59v.06a27,27,0,0,0,16.78,5.86,27.54,27.54,0,0,0,27.32-27.76,28,28,0,0,0-5.31-16.46Z" transform="translate(-107.97 -90.58)"/><path class="cls-1" d="M333,288.75a37.67,37.67,0,1,0,37.67,37.67A37.68,37.68,0,0,0,333,288.75Zm0,66.79a29.31,29.31,0,1,1,29.31-29.31A29.31,29.31,0,0,1,333,355.54Z" transform="translate(-107.97 -90.58)"/><path class="cls-1" d="M313.43,360.23s3.63,9.5,15,7.37l-9.12,24-6.88-6.12-8.79.25Z" transform="translate(-107.97 -90.58)"/><line class="cls-3" x1="201.22" y1="268.9" x2="191.47" y2="294.9"/><circle class="cls-2" cx="224.98" cy="235.65" r="29.31"/><polyline class="cls-3" points="214.22 303.52 224.22 278.4 235.97 307.15"/><path class="cls-1" d="M335.56,366.6l11.5,28.25,6.75-5.75,8.45.25-10.45-28.12S347.06,371.23,335.56,366.6Z" transform="translate(-107.97 -90.58)"/><line class="cls-3" x1="247.84" y1="269.65" x2="258.84" y2="298.15"/><path class="cls-1" d="M353.32,315.32l-4.41-3.75a1.43,1.43,0,0,0-2,.17l-16.27,19.17L322.16,323a1.44,1.44,0,0,0-2,.07l-3.94,4.23a1.44,1.44,0,0,0,.07,2l9.34,8.7a1.52,1.52,0,0,0,.38.53l2.11,1.79,2,1.9a1.38,1.38,0,0,0,1.09.36,1.41,1.41,0,0,0,1.19-.47l2.28-2.69L336.1,338a1.71,1.71,0,0,0,.3-.5l17.09-20.14A1.43,1.43,0,0,0,353.32,315.32Z" transform="translate(-107.97 -90.58)"/><line class="cls-4" x1="139.64" y1="128.45" x2="228.64" y2="128.45"/><line class="cls-4" x1="139.64" y1="146.7" x2="228.64" y2="146.7"/><line class="cls-4" x1="139.64" y1="164.95" x2="228.64" y2="164.95"/><line class="cls-4" x1="139.64" y1="182.95" x2="172.39" y2="182.95"/><line class="cls-4" x1="139.64" y1="201.45" x2="172.39" y2="201.45"/><line class="cls-4" x1="139.64" y1="218.45" x2="172.39" y2="218.45"/></g></svg>