<svg id="SSL" xmlns="http://www.w3.org/2000/svg" viewBox="0 0 365.67 365.67"><defs><style>.cls-1{fill:#243746;}.cls-2{fill:#fff;}</style></defs><title>Icon-SSL</title><circle class="cls-1" cx="182.83" cy="182.83" r="182.83"/><circle class="cls-2" cx="182.83" cy="181.78" r="159.62"/><path class="cls-1" d="M282.73,179c14.08,7.75,56.78,30.24,91.53,38a110.68,110.68,0,0,1,0,24.24H192.8c-.76-8.06-1.17-17.91-.35-24.94,14-3.24,49.85-13.2,90.28-37.33m-.18-10.42c-51.88,32.08-97.76,40.17-97.76,40.17-4,13.48,0,41.52,0,41.52H382.14c4.05-24.26,0-40.84,0-40.84-41-7.15-99.59-40.85-99.59-40.85Z" transform="translate(-100.63 -99.57)"/><path class="cls-1" d="M209.32,250.3c.54,0-3-8.63,0-22.64,0,0,33.43-3.51,74.14-34.78,0,0,25.08,23.72,74.69,32.89,0,0,2.42,8.63,0,24.53Z" transform="translate(-100.63 -99.57)"/><path class="cls-2" d="M286.77,204.47v38.82h64.1l1.21-13.14S321.75,227.52,286.77,204.47Z" transform="translate(-100.63 -99.57)"/><path class="cls-1" d="M348.51,329.13a252.28,252.28,0,0,1-64.89,58.65c-11.49-7.19-42.81-28.35-66-58.65H348.51m17.19-9H200.42c29.66,48,83.25,78.19,83.25,78.19,56.55-34,82-78.19,82-78.19Z" transform="translate(-100.63 -99.57)"/><path class="cls-1" d="M233.72,320.13c.41,0,16,32.62,49.34,53.11,0,0,26.76-13.88,47.59-53.11Z" transform="translate(-100.63 -99.57)"/><path class="cls-2" d="M286.77,362.8s15.37-10.52,33.36-37H286.77Z" transform="translate(-100.63 -99.57)"/><path class="cls-1" d="M246.62,306.47a28.56,28.56,0,0,1-8.67-1.32,16.41,16.41,0,0,1-6.57-3.67l3.24-5.46a18.6,18.6,0,0,0,5.54,2.79,19.18,19.18,0,0,0,6,1.14c2.71,0,4.7-.5,6-1.5a5.41,5.41,0,0,0,1.94-4.56,8.46,8.46,0,0,0-.18-1.94,4.08,4.08,0,0,0-.81-1.53A6,6,0,0,0,251.2,289a24.19,24.19,0,0,0-3.35-1.42l-3-1c-1.43-.46-2.48-.81-3.14-1.05q-5.4-2-7.83-4.82a11,11,0,0,1-2.43-7.52,10.72,10.72,0,0,1,2-6.57,11.84,11.84,0,0,1,5.39-4,21.32,21.32,0,0,1,7.68-1.29,28.52,28.52,0,0,1,9.1,1.14,17,17,0,0,1,6.12,3.91l-3.9,5q-3.69-3.51-10.24-3.51a12,12,0,0,0-5.8,1.23,4,4,0,0,0-2.24,3.75,8.21,8.21,0,0,0,.21,2,3.89,3.89,0,0,0,.89,1.56,6.47,6.47,0,0,0,1.93,1.41,29.16,29.16,0,0,0,3.36,1.39c.5.18,1.55.53,3.14,1s2.78.91,3.56,1.21q5.34,2.13,7.44,4.9t2.1,7.68a12.28,12.28,0,0,1-1.29,5.75,9.92,9.92,0,0,1-3.51,3.88,16.68,16.68,0,0,1-4.92,2.11A23.47,23.47,0,0,1,246.62,306.47Z" transform="translate(-100.63 -99.57)"/><path class="cls-1" d="M284.32,306.47a28.56,28.56,0,0,1-8.67-1.32,16.41,16.41,0,0,1-6.57-3.67l3.24-5.46a18.6,18.6,0,0,0,5.54,2.79,19.18,19.18,0,0,0,6,1.14q4.05,0,6-1.5a5.41,5.41,0,0,0,1.94-4.56,8.46,8.46,0,0,0-.18-1.94,4.08,4.08,0,0,0-.81-1.53A6,6,0,0,0,288.9,289a24.73,24.73,0,0,0-3.35-1.42l-3-1c-1.43-.46-2.48-.81-3.14-1.05q-5.4-2-7.83-4.82a11,11,0,0,1-2.43-7.52,10.72,10.72,0,0,1,2-6.57,11.84,11.84,0,0,1,5.39-4,21.32,21.32,0,0,1,7.68-1.29,28.52,28.52,0,0,1,9.1,1.14,17,17,0,0,1,6.12,3.91l-3.9,5q-3.69-3.51-10.24-3.51a12,12,0,0,0-5.8,1.23,4,4,0,0,0-2.24,3.75,8.21,8.21,0,0,0,.21,2,3.89,3.89,0,0,0,.89,1.56,6.47,6.47,0,0,0,1.93,1.41,29.16,29.16,0,0,0,3.36,1.39c.5.18,1.55.53,3.14,1s2.78.91,3.56,1.21q5.34,2.13,7.44,4.9t2.1,7.68a12.28,12.28,0,0,1-1.29,5.75,9.92,9.92,0,0,1-3.51,3.88,16.68,16.68,0,0,1-4.92,2.11A23.53,23.53,0,0,1,284.32,306.47Z" transform="translate(-100.63 -99.57)"/><path class="cls-1" d="M309,305.78V262.07h7.62v37.16h20.23v6.55Z" transform="translate(-100.63 -99.57)"/></svg>