<svg id="SSL" xmlns="http://www.w3.org/2000/svg" viewBox="0 0 365.67 365.67"><defs><style>.cls-1{fill:#243746;}.cls-2{fill:#fff;}</style></defs><title>Icon-SSL</title><circle class="cls-1" cx="182.83" cy="182.83" r="182.83"/><circle class="cls-2" cx="182.83" cy="181.78" r="159.62"/><path class="cls-1" d="M209.14,248.19c.54,0-3-8.63,0-22.65,0,0,33.43-3.5,74.14-34.78,0,0,25.07,23.73,74.68,32.9,0,0,2.43,8.62,0,24.53Z" transform="translate(-100.63 -99.57)"/><path class="cls-2" d="M286.58,202.36v38.82h64.1L351.9,228S321.56,225.41,286.58,202.36Z" transform="translate(-100.63 -99.57)"/><path class="cls-1" d="M233.54,318c.4,0,16,32.62,49.34,53.11,0,0,26.75-13.88,47.58-53.11Z" transform="translate(-100.63 -99.57)"/><path class="cls-2" d="M286.58,360.68s15.37-10.51,33.37-37H286.58Z" transform="translate(-100.63 -99.57)"/><path class="cls-1" d="M246.44,304.35a28.56,28.56,0,0,1-8.67-1.32,16.26,16.26,0,0,1-6.58-3.66l3.24-5.46A18.73,18.73,0,0,0,240,296.7a19.24,19.24,0,0,0,6,1.14q4,0,6-1.5a5.41,5.41,0,0,0,1.93-4.56,8.46,8.46,0,0,0-.18-1.94,4.08,4.08,0,0,0-.81-1.53,6,6,0,0,0-1.87-1.47,24.6,24.6,0,0,0-3.35-1.43l-3-1c-1.43-.46-2.47-.81-3.13-1.05q-5.4-2-7.84-4.81a11,11,0,0,1-2.43-7.52,10.75,10.75,0,0,1,2-6.58,11.77,11.77,0,0,1,5.39-4,21.32,21.32,0,0,1,7.68-1.29,28.5,28.5,0,0,1,9.09,1.14,17,17,0,0,1,6.13,3.9l-3.9,5.05q-3.7-3.53-10.24-3.52a12,12,0,0,0-5.81,1.23,4,4,0,0,0-2.23,3.76,8.07,8.07,0,0,0,.21,2,3.86,3.86,0,0,0,.88,1.56,6.53,6.53,0,0,0,1.94,1.41,29,29,0,0,0,3.36,1.4c.5.18,1.55.53,3.14,1s2.77.91,3.55,1.21q5.34,2.13,7.45,4.89c1.4,1.84,2.1,4.41,2.1,7.69a12.24,12.24,0,0,1-1.29,5.74,9.88,9.88,0,0,1-3.51,3.89,17.1,17.1,0,0,1-4.93,2.1A23.45,23.45,0,0,1,246.44,304.35Z" transform="translate(-100.63 -99.57)"/><path class="cls-1" d="M284.14,304.35a28.67,28.67,0,0,1-8.68-1.32,16.28,16.28,0,0,1-6.57-3.66l3.24-5.46a18.73,18.73,0,0,0,5.54,2.79,19.24,19.24,0,0,0,6,1.14q4.05,0,6-1.5a5.41,5.41,0,0,0,1.93-4.56,8.46,8.46,0,0,0-.18-1.94,4.08,4.08,0,0,0-.81-1.53,6,6,0,0,0-1.87-1.47,24.6,24.6,0,0,0-3.35-1.43l-3.05-1c-1.43-.46-2.47-.81-3.13-1.05q-5.42-2-7.84-4.81a11,11,0,0,1-2.43-7.52,10.75,10.75,0,0,1,2-6.58,11.79,11.79,0,0,1,5.38-4,21.41,21.41,0,0,1,7.69-1.29,28.5,28.5,0,0,1,9.09,1.14,17.09,17.09,0,0,1,6.13,3.9l-3.91,5.05q-3.69-3.53-10.23-3.52a12,12,0,0,0-5.81,1.23,4,4,0,0,0-2.23,3.76,8.07,8.07,0,0,0,.21,2,3.86,3.86,0,0,0,.88,1.56,6.53,6.53,0,0,0,1.94,1.41,29,29,0,0,0,3.36,1.4c.5.18,1.54.53,3.13,1s2.78.91,3.56,1.21q5.34,2.13,7.45,4.89c1.4,1.84,2.1,4.41,2.1,7.69a12.24,12.24,0,0,1-1.29,5.74,9.83,9.83,0,0,1-3.52,3.89,16.92,16.92,0,0,1-4.92,2.1A23.45,23.45,0,0,1,284.14,304.35Z" transform="translate(-100.63 -99.57)"/><path class="cls-1" d="M308.84,303.66V260h7.63v37.16H336.7v6.54Z" transform="translate(-100.63 -99.57)"/><path class="cls-1" d="M282.78,177c46.93,26,78.53,35.05,91.45,38,4.17,24.84,2.41,48.88-5.25,71.56-6.65,19.69-17.76,38.48-33,55.87a222.8,222.8,0,0,1-52.37,43.4c-26.14-15.75-47.15-34.42-62.48-55.53a159.29,159.29,0,0,1-26.6-58,153.35,153.35,0,0,1-2.23-58.19c47.2-11.5,78.89-29.67,90.49-37.07m-.42-10.54s-36.3,26.29-97.76,40.17c0,0-30.44,114.86,98.89,189.54,0,0,124.11-63.41,98.47-188.87,0,0-36-4.9-99.6-40.84Z" transform="translate(-100.63 -99.57)"/></svg>