<svg xmlns="http://www.w3.org/2000/svg" viewBox="0 0 317.26 147.45"><defs><style>.cls-1{fill:none;}.cls-2{fill:#65b32e;}.cls-3{fill:#008dd1;}.cls-4{fill:#c9368c;}</style></defs><title>1_NEU_Logo_bunt</title><g id="Hauptlogo"><polygon class="cls-1" points="57.01 30.32 38.11 78.18 75.91 78.18 57.01 30.32"/><path class="cls-2" d="M123.77,296.61h-9.45a6.5,6.5,0,0,0,0,13h4.32Z" transform="translate(-104.72 -216.43)"/><path class="cls-3" d="M153.83,226.73c-.06-.14-.1-.29-.15-.44l-48.5,122.86a6.5,6.5,0,1,0,12.09,4.78L134,311.61h0l6.74-17h0l20-50.59Z" transform="translate(-104.72 -216.43)"/><path class="cls-4" d="M155.69,226l27.09,68.61h10.59a8.49,8.49,0,0,1,3.73.87l-29.32-74.25a6.5,6.5,0,0,0-8.43-3.66h0A6.51,6.51,0,0,0,155.69,226Z" transform="translate(-104.72 -216.43)"/><path class="cls-2" d="M193.37,309.61a6.5,6.5,0,1,0,0-13H142l-5.15,13Z" transform="translate(-104.72 -216.43)"/></g><g id="Schriftzug"><path class="cls-3" d="M232.23,310.6a6.86,6.86,0,0,1-5.1-2.19,7.16,7.16,0,0,1-2.13-5.16V219.78a3.53,3.53,0,0,1,3.35-3.35,3.07,3.07,0,0,1,2.26,1,3.21,3.21,0,0,1,1,2.38v84a1,1,0,0,0,1.16,1.16h44a2.84,2.84,0,0,1,0,5.68Z" transform="translate(-104.72 -216.43)"/><path class="cls-3" d="M309.63,268.67l-30.84-49a1.76,1.76,0,0,1-.12-2.12,2.09,2.09,0,0,1,1.93-1.1,6.55,6.55,0,0,1,5.81,3.22l27,44.12c0,.09.08.13.25.13s.13,0,.13-.13l27.09-44.12a6.24,6.24,0,0,1,5.68-3.22,2,2,0,0,1,1.81,1,1.86,1.86,0,0,1,0,2.07l-31,49.14a4.06,4.06,0,0,0-.52,2.07v36.51a3.24,3.24,0,0,1-1,2.32,3.28,3.28,0,0,1-2.39,1,3.06,3.06,0,0,1-2.32-1,3.29,3.29,0,0,1-1-2.32V270.74A4.15,4.15,0,0,0,309.63,268.67Z" transform="translate(-104.72 -216.43)"/><path class="cls-3" d="M375.54,309.7a3.22,3.22,0,0,1-5.54-2.32v-83.6a7.48,7.48,0,0,1,7.35-7.35h41.92a2.53,2.53,0,0,1,1.94.84,2.86,2.86,0,0,1,.77,2,2.65,2.65,0,0,1-2.71,2.71H377.61a1,1,0,0,0-1.17,1.16v33.8a1,1,0,0,0,1.17,1.16h39.08a2.61,2.61,0,0,1,1.94.77,2.82,2.82,0,0,1,0,3.87,2.61,2.61,0,0,1-1.94.77H377.61c-.78,0-1.17.35-1.17,1v42.83A3.15,3.15,0,0,1,375.54,309.7Z" transform="translate(-104.72 -216.43)"/><path class="cls-3" d="M138.68,341.76a.94.94,0,0,1-.71.29,1,1,0,0,1-1-1v-.67a.94.94,0,0,1,.29-.7.93.93,0,0,1,.71-.3.94.94,0,0,1,.71.3,1,1,0,0,1,.29.7v.67A1,1,0,0,1,138.68,341.76Zm0,16.07a.94.94,0,0,1-.71.3.93.93,0,0,1-.71-.3,1,1,0,0,1-.29-.7v-11a.94.94,0,0,1,.29-.7.93.93,0,0,1,.71-.3.94.94,0,0,1,.71.3,1,1,0,0,1,.29.7v11A1,1,0,0,1,138.68,357.83Z" transform="translate(-104.72 -216.43)"/><path class="cls-3" d="M147,357.85a.94.94,0,0,1-.69.28,1,1,0,0,1-.95-.95V346a.85.85,0,0,1,.27-.64.82.82,0,0,1,.63-.26.88.88,0,0,1,.65.26.83.83,0,0,1,.28.64v1s0,0,0,0a.05.05,0,0,0,.05,0,5.4,5.4,0,0,1,4.28-2.17,4,4,0,0,1,3.3,1.27,6.84,6.84,0,0,1,1,4.23v6.8a.91.91,0,0,1-.26.67.85.85,0,0,1-.66.28.94.94,0,0,1-.95-.95v-6.55a6,6,0,0,0-.68-3.37,2.68,2.68,0,0,0-2.27-.88,3.6,3.6,0,0,0-2.53,1.21,3.56,3.56,0,0,0-1.22,2.49v7.1A.9.9,0,0,1,147,357.85Z" transform="translate(-104.72 -216.43)"/><path class="cls-3" d="M160.72,347.13a.7.7,0,0,1-.54-.22.75.75,0,0,1,.54-1.28h1.82a.21.21,0,0,0,.23-.23v-3.57a.92.92,0,0,1,.95-.95.94.94,0,0,1,.95.95v3.57c0,.15.07.23.22.23h3.75a.76.76,0,0,1,.54,1.28.7.7,0,0,1-.54.22h-3.75a.19.19,0,0,0-.22.22V354a4,4,0,0,0,.47,2.36,2.33,2.33,0,0,0,1.83.57,5.44,5.44,0,0,0,1.32-.13.73.73,0,0,1,.52.11.53.53,0,0,1,.23.44,1,1,0,0,1-.21.63.81.81,0,0,1-.54.32,9.18,9.18,0,0,1-1.65.13,4,4,0,0,1-3-.92,5,5,0,0,1-.84-3.33v-6.78c0-.15-.08-.22-.23-.22Z" transform="translate(-104.72 -216.43)"/><path class="cls-3" d="M179.92,358.38a6.18,6.18,0,0,1-4.68-1.69,7.14,7.14,0,0,1-1.6-5.06c0-2.32.52-4,1.54-5.12a5.51,5.51,0,0,1,4.21-1.63q4.94,0,5.23,5.82a1.27,1.27,0,0,1-.41,1,1.47,1.47,0,0,1-1,.42h-7.4c-.14,0-.2.07-.2.22q.23,4.57,4.52,4.58a8.86,8.86,0,0,0,2.93-.53.6.6,0,0,1,.52.06.53.53,0,0,1,.25.47A1,1,0,0,1,183,358,13.12,13.12,0,0,1,179.92,358.38Zm-.53-12.05q-3.46,0-3.8,4.12c0,.14.08.2.23.2h6.72c.14,0,.2-.06.2-.2C182.64,347.7,181.53,346.33,179.39,346.33Z" transform="translate(-104.72 -216.43)"/><path class="cls-3" d="M192,357.83a1,1,0,0,1-.72.3.94.94,0,0,1-.71-.3,1,1,0,0,1-.29-.7V340.38a1,1,0,0,1,.29-.7.94.94,0,0,1,.71-.3,1,1,0,0,1,1,1v16.75A1,1,0,0,1,192,357.83Z" transform="translate(-104.72 -216.43)"/><path class="cls-3" d="M200.83,357.83a.94.94,0,0,1-.71.3.93.93,0,0,1-.71-.3,1,1,0,0,1-.29-.7V340.38a.94.94,0,0,1,.29-.7.93.93,0,0,1,.71-.3.94.94,0,0,1,.71.3,1,1,0,0,1,.29.7v16.75A1,1,0,0,1,200.83,357.83Z" transform="translate(-104.72 -216.43)"/><path class="cls-3" d="M209.71,341.76a1,1,0,0,1-.72.29.94.94,0,0,1-.71-.29,1,1,0,0,1-.29-.71v-.67a1,1,0,0,1,.29-.7.94.94,0,0,1,.71-.3,1,1,0,0,1,1,1v.67A1,1,0,0,1,209.71,341.76Zm0,16.07a1,1,0,0,1-.72.3.94.94,0,0,1-.71-.3,1,1,0,0,1-.29-.7v-11a1,1,0,0,1,.29-.7.94.94,0,0,1,.71-.3,1,1,0,0,1,1,1v11A1,1,0,0,1,209.71,357.83Z" transform="translate(-104.72 -216.43)"/><path class="cls-3" d="M220.67,358.13a4.41,4.41,0,0,1-3.66-1.77,7.71,7.71,0,0,1-1.39-4.91A7.48,7.48,0,0,1,217,346.5a4.57,4.57,0,0,1,3.66-1.62,5,5,0,0,1,4.12,2.07l.05,0a0,0,0,0,0,0,0l0-.92a.85.85,0,0,1,.27-.64.82.82,0,0,1,.63-.26.89.89,0,0,1,.9.9v11.35q0,3.38-1.45,4.93a5.89,5.89,0,0,1-4.55,1.57,11.61,11.61,0,0,1-2.85-.33,1,1,0,0,1-.8-1.05.6.6,0,0,1,.24-.49.5.5,0,0,1,.51-.08,9.45,9.45,0,0,0,2.9.45,3.9,3.9,0,0,0,3.14-1.15,5.92,5.92,0,0,0,1-3.78v-1.22s0,0,0,0a.05.05,0,0,0-.05,0A5,5,0,0,1,220.67,358.13Zm.5-11.75q-3.63,0-3.63,5.07a6.42,6.42,0,0,0,1,3.85,3.08,3.08,0,0,0,2.66,1.33,3.69,3.69,0,0,0,3.62-3.65v-2.9a3.58,3.58,0,0,0-1.08-2.6A3.46,3.46,0,0,0,221.17,346.38Z" transform="translate(-104.72 -216.43)"/><path class="cls-3" d="M237.47,358.38a6.18,6.18,0,0,1-4.68-1.69,7.14,7.14,0,0,1-1.6-5.06c0-2.32.52-4,1.54-5.12a5.51,5.51,0,0,1,4.21-1.63q4.94,0,5.23,5.82a1.27,1.27,0,0,1-.41,1,1.47,1.47,0,0,1-1,.42h-7.4c-.14,0-.2.07-.2.22q.23,4.57,4.52,4.58a8.86,8.86,0,0,0,2.93-.53.6.6,0,0,1,.52.06.53.53,0,0,1,.25.47,1,1,0,0,1-.77,1.05A13.12,13.12,0,0,1,237.47,358.38Zm-.53-12.05q-3.47,0-3.8,4.12c0,.14.08.2.23.2h6.72c.14,0,.2-.06.2-.2C240.19,347.7,239.08,346.33,236.94,346.33Z" transform="translate(-104.72 -216.43)"/><path class="cls-3" d="M248.43,357.85a.94.94,0,0,1-.69.28,1,1,0,0,1-1-.95V346a.85.85,0,0,1,.27-.64.82.82,0,0,1,.63-.26.88.88,0,0,1,.65.26.83.83,0,0,1,.28.64v1s0,0,0,0a.05.05,0,0,0,.05,0,5.4,5.4,0,0,1,4.28-2.17,4,4,0,0,1,3.3,1.27,6.84,6.84,0,0,1,1,4.23v6.8a.91.91,0,0,1-.26.67.87.87,0,0,1-.66.28.94.94,0,0,1-1-.95v-6.55a6,6,0,0,0-.68-3.37,2.68,2.68,0,0,0-2.27-.88,3.6,3.6,0,0,0-2.53,1.21,3.56,3.56,0,0,0-1.22,2.49v7.1A.9.9,0,0,1,248.43,357.85Z" transform="translate(-104.72 -216.43)"/><path class="cls-3" d="M262.17,347.13a.7.7,0,0,1-.54-.22.75.75,0,0,1,.54-1.28H264a.21.21,0,0,0,.23-.23v-3.57a.92.92,0,0,1,.95-.95.94.94,0,0,1,.95.95v3.57c0,.15.07.23.22.23h3.75a.76.76,0,0,1,.54,1.28.7.7,0,0,1-.54.22h-3.75a.19.19,0,0,0-.22.22V354a4,4,0,0,0,.47,2.36,2.33,2.33,0,0,0,1.83.57,5.44,5.44,0,0,0,1.32-.13.69.69,0,0,1,.51.11.51.51,0,0,1,.24.44,1,1,0,0,1-.21.63.81.81,0,0,1-.54.32,9.18,9.18,0,0,1-1.65.13,4,4,0,0,1-3-.92,5,5,0,0,1-.84-3.33v-6.78c0-.15-.08-.22-.23-.22Z" transform="translate(-104.72 -216.43)"/><path class="cls-3" d="M286.27,357.86a.91.91,0,0,1-.65.27.85.85,0,0,1-.64-.27.82.82,0,0,1-.26-.63v-16.9a.94.94,0,0,1,.27-.68.93.93,0,0,1,.68-.27,1,1,0,0,1,.68.27.89.89,0,0,1,.29.68v6.47a0,0,0,0,0,0,0l.05,0a5.11,5.11,0,0,1,4.07-1.92,4.64,4.64,0,0,1,3.84,1.76,7.8,7.8,0,0,1,1.41,5,7.64,7.64,0,0,1-1.46,4.93,4.66,4.66,0,0,1-3.79,1.82,5.14,5.14,0,0,1-4.17-2.08l-.05,0s0,0,0,0v.93A.83.83,0,0,1,286.27,357.86Zm.37-8.16v3.85a3,3,0,0,0,1.15,2.31,3.81,3.81,0,0,0,2.6,1,3.21,3.21,0,0,0,2.76-1.33,6.49,6.49,0,0,0,1-3.92q0-5.25-3.75-5.25a3.8,3.8,0,0,0-2.61,1A3.05,3.05,0,0,0,286.64,349.7Z" transform="translate(-104.72 -216.43)"/><path class="cls-3" d="M304.74,358.38a4,4,0,0,1-3.19-1.2,6.22,6.22,0,0,1-1-4v-7.12a1,1,0,0,1,.26-.68.9.9,0,0,1,.67-.27.92.92,0,0,1,.67.27,1,1,0,0,1,.28.68V353a5.15,5.15,0,0,0,.67,3.09,2.6,2.6,0,0,0,2.15.84,3.62,3.62,0,0,0,2.55-1.17,3.48,3.48,0,0,0,1.2-2.53v-7.1a.92.92,0,0,1,.29-.68,1,1,0,0,1,.69-.27.92.92,0,0,1,.67.27,1,1,0,0,1,.28.68v11.15a.92.92,0,0,1-.9.9.89.89,0,0,1-.65-.27.81.81,0,0,1-.28-.63v-1l0,0-.05,0A5.27,5.27,0,0,1,304.74,358.38Z" transform="translate(-104.72 -216.43)"/><path class="cls-3" d="M320.42,352.3a8.14,8.14,0,0,1-3.47-1.49,3,3,0,0,1-1-2.36,3.13,3.13,0,0,1,1.23-2.61,5.69,5.69,0,0,1,3.54-1,13.41,13.41,0,0,1,3.43.45,1,1,0,0,1,.77,1,.5.5,0,0,1-.22.45.64.64,0,0,1-.53.08,11.11,11.11,0,0,0-3.3-.5q-3,0-3,1.92a1.84,1.84,0,0,0,.6,1.41,4.82,4.82,0,0,0,2.18.92,8.5,8.5,0,0,1,3.71,1.52,3.43,3.43,0,0,1,1,2.65,3.09,3.09,0,0,1-1.29,2.63,6,6,0,0,1-3.63.95,11.12,11.12,0,0,1-3.48-.55,1,1,0,0,1-.77-1.08.5.5,0,0,1,.25-.44.6.6,0,0,1,.52-.06,9.11,9.11,0,0,0,3.33.63c2.1,0,3.15-.69,3.15-2.08a2,2,0,0,0-.64-1.5A5.37,5.37,0,0,0,320.42,352.3Z" transform="translate(-104.72 -216.43)"/><path class="cls-3" d="M333.05,341.76a1,1,0,0,1-1.42,0,1,1,0,0,1-.29-.71v-.67a1,1,0,0,1,.29-.7,1,1,0,0,1,1.71.7v.67A.92.92,0,0,1,333.05,341.76Zm0,16.07a1,1,0,0,1-1.42,0,1,1,0,0,1-.29-.7v-11a1,1,0,0,1,.29-.7,1,1,0,0,1,1.71.7v11A1,1,0,0,1,333.05,357.83Z" transform="translate(-104.72 -216.43)"/><path class="cls-3" d="M341.35,357.85a.93.93,0,0,1-.68.28.9.9,0,0,1-.68-.28.92.92,0,0,1-.27-.67V346a.89.89,0,0,1,.9-.9.9.9,0,0,1,.65.26.85.85,0,0,1,.27.64v1a0,0,0,0,0,0,0l.05,0a5.38,5.38,0,0,1,4.27-2.17,4,4,0,0,1,3.3,1.27,6.83,6.83,0,0,1,1,4.23v6.8a.92.92,0,0,1-.27.67.84.84,0,0,1-.66.28.88.88,0,0,1-.67-.28.89.89,0,0,1-.28-.67v-6.55a6,6,0,0,0-.67-3.37,2.69,2.69,0,0,0-2.28-.88,4.27,4.27,0,0,0-3.75,3.7v7.1A.9.9,0,0,1,341.35,357.85Z" transform="translate(-104.72 -216.43)"/><path class="cls-3" d="M360.87,358.38a6.18,6.18,0,0,1-4.68-1.69,7.1,7.1,0,0,1-1.6-5.06c0-2.32.51-4,1.54-5.12a5.49,5.49,0,0,1,4.21-1.63c3.28,0,5,1.94,5.23,5.82a1.28,1.28,0,0,1-.42,1,1.43,1.43,0,0,1-1,.42h-7.4c-.14,0-.2.07-.2.22.15,3,1.65,4.58,4.52,4.58a8.86,8.86,0,0,0,2.93-.53.6.6,0,0,1,.52.06.53.53,0,0,1,.25.47A1,1,0,0,1,364,358,13.12,13.12,0,0,1,360.87,358.38Zm-.53-12.05c-2.32,0-3.58,1.37-3.8,4.12,0,.14.08.2.23.2h6.72a.18.18,0,0,0,.2-.2Q363.54,346.33,360.34,346.33Z" transform="translate(-104.72 -216.43)"/><path class="cls-3" d="M374.32,352.3a8.14,8.14,0,0,1-3.47-1.49,3,3,0,0,1-1-2.36,3.13,3.13,0,0,1,1.23-2.61,5.69,5.69,0,0,1,3.54-1,13.41,13.41,0,0,1,3.43.45,1,1,0,0,1,.77,1,.5.5,0,0,1-.22.45.64.64,0,0,1-.53.08,11.11,11.11,0,0,0-3.3-.5q-3,0-3,1.92a1.84,1.84,0,0,0,.6,1.41,4.82,4.82,0,0,0,2.18.92,8.5,8.5,0,0,1,3.71,1.52,3.43,3.43,0,0,1,1,2.65,3.09,3.09,0,0,1-1.29,2.63,6.05,6.05,0,0,1-3.63.95,11.12,11.12,0,0,1-3.48-.55,1,1,0,0,1-.77-1.08.5.5,0,0,1,.25-.44.6.6,0,0,1,.52-.06,9.11,9.11,0,0,0,3.33.63c2.1,0,3.15-.69,3.15-2.08a2,2,0,0,0-.64-1.5A5.37,5.37,0,0,0,374.32,352.3Z" transform="translate(-104.72 -216.43)"/><path class="cls-3" d="M388.12,352.3a8.14,8.14,0,0,1-3.47-1.49,3,3,0,0,1-1-2.36,3.13,3.13,0,0,1,1.23-2.61,5.69,5.69,0,0,1,3.54-1,13.41,13.41,0,0,1,3.43.45,1,1,0,0,1,.77,1,.5.5,0,0,1-.22.45.65.65,0,0,1-.53.08,11.11,11.11,0,0,0-3.3-.5q-3,0-3,1.92a1.84,1.84,0,0,0,.6,1.41,4.82,4.82,0,0,0,2.18.92,8.5,8.5,0,0,1,3.71,1.52,3.43,3.43,0,0,1,1,2.65,3.09,3.09,0,0,1-1.29,2.63,6.05,6.05,0,0,1-3.63.95,11.12,11.12,0,0,1-3.48-.55,1,1,0,0,1-.77-1.08.5.5,0,0,1,.25-.44.6.6,0,0,1,.52-.06,9.1,9.1,0,0,0,3.32.63c2.11,0,3.16-.69,3.16-2.08a2,2,0,0,0-.64-1.5A5.37,5.37,0,0,0,388.12,352.3Z" transform="translate(-104.72 -216.43)"/><path class="cls-3" d="M403.44,358.38a6.18,6.18,0,0,1-4.68-1.69,7.14,7.14,0,0,1-1.59-5.06c0-2.32.51-4,1.53-5.12a5.51,5.51,0,0,1,4.22-1.63q4.92,0,5.22,5.82a1.24,1.24,0,0,1-.41,1,1.45,1.45,0,0,1-1,.42h-7.4c-.13,0-.2.07-.2.22q.23,4.57,4.53,4.58a8.81,8.81,0,0,0,2.92-.53.62.62,0,0,1,.53.06.55.55,0,0,1,.25.47,1,1,0,0,1-.78,1.05A13.12,13.12,0,0,1,403.44,358.38Zm-.52-12.05q-3.48,0-3.8,4.12c0,.14.07.2.22.2h6.73c.13,0,.19-.06.19-.2C406.17,347.7,405.05,346.33,402.92,346.33Z" transform="translate(-104.72 -216.43)"/><path class="cls-3" d="M416.89,352.3a8.09,8.09,0,0,1-3.46-1.49,3,3,0,0,1-1-2.36,3.12,3.12,0,0,1,1.24-2.61,5.65,5.65,0,0,1,3.54-1,13.33,13.33,0,0,1,3.42.45.94.94,0,0,1,.77,1,.5.5,0,0,1-.22.45.64.64,0,0,1-.53.08,11.06,11.06,0,0,0-3.3-.5q-3,0-3,1.92a1.81,1.81,0,0,0,.61,1.41,4.72,4.72,0,0,0,2.17.92,8.45,8.45,0,0,1,3.71,1.52,3.39,3.39,0,0,1,1,2.65,3.08,3.08,0,0,1-1.28,2.63,6.06,6.06,0,0,1-3.64.95,11,11,0,0,1-3.47-.55,1,1,0,0,1-.78-1.08.5.5,0,0,1,.25-.44.62.62,0,0,1,.53-.06,9.1,9.1,0,0,0,3.32.63c2.1,0,3.15-.69,3.15-2.08a2,2,0,0,0-.64-1.5A5.32,5.32,0,0,0,416.89,352.3Z" transform="translate(-104.72 -216.43)"/></g></svg>